<?xml version="1.0" encoding="UTF-8"?><svg id="b" xmlns="http://www.w3.org/2000/svg" xmlns:xlink="http://www.w3.org/1999/xlink" viewBox="0 0 1149.9 226.87"><defs><linearGradient id="d" x1="56.46" y1="91.67" x2="226.56" y2="91.67" gradientUnits="userSpaceOnUse"><stop offset="0" stop-color="#51a3c7"/><stop offset=".06" stop-color="#51acca"/><stop offset=".23" stop-color="#51c1d4"/><stop offset=".43" stop-color="#51d0da"/><stop offset=".65" stop-color="#51d9de"/><stop offset=".99" stop-color="#51dce0"/></linearGradient><radialGradient id="e" cx="105.75" cy="142.92" fx="105.75" fy="142.92" r="94.74" gradientUnits="userSpaceOnUse"><stop offset="0" stop-color="#51a3c7"/><stop offset=".51" stop-color="#50a1c5"/><stop offset=".7" stop-color="#4d9bbe"/><stop offset=".83" stop-color="#4792b2"/><stop offset=".93" stop-color="#3f84a1"/><stop offset="1" stop-color="#397893"/></radialGradient><radialGradient id="f" cx="85.51" cy="95.38" fx="85.51" fy="95.38" r="82.49" xlink:href="#e"/></defs><g id="c"><path d="M131.15,157.94c3.73-5.11,7.53-10.17,11.16-15.35,12.72-18.16,25.37-36.36,38.05-54.54,1.61-2.3,3.26-4.57,4.98-6.97.33.46.57.76.78,1.1,2.87,4.56,4.56,9.63,6.21,14.69,1.93,5.91,2.35,12.12,2.98,18.52.07,3.1.13,6.2.06,9.46-.21,2.86-.27,5.74-.65,8.57-1.48,10.96-4.98,21.26-10.25,30.97-6.02,11.1-13.79,20.77-23.72,28.6-13.45,10.61-28.79,16.58-45.8,18.38-10.17,1.08-20.23.43-30.2-1.82-12.67-2.87-24.09-8.39-34.43-16.19-4.34-3.27-8.65-6.59-11.88-11.05-.21-.29-.36-.63-.56-1,.31-.1.43-.15.56-.18,8.63-1.65,16.91-4.33,24.82-8.17,8.99-4.38,17.04-10.09,24.43-16.87,7.46,9.05,14.91,18.09,22.47,27.26.35-.62.57-1,.78-1.39,8.06-15.16,15.89-30.44,24.23-45.44,14.63-26.31,30.27-52.03,47.73-76.58,5.07-7.13,10.32-14.13,15.6-21.11,2.03-2.68,2.29-2.59,4.38.06,2.19,2.78,4.3,5.63,6.53,8.39.64.79,1.55,1.35,2.6,2.23,3.03-16.73,5.99-33.03,8.97-49.52-15.9,6.55-31.59,13.01-47.28,19.48l-.07.62c5.04,2.3,10.08,4.6,15.34,7.01-25.94,27.02-51.61,53.77-77.6,80.85-.36-1.98-.8-3.54-.89-5.12-.17-2.95-.03-5.93-.21-8.88-.42-6.85-.97-13.69-1.42-20.53-.3-4.47-.52-8.95-.79-13.43-.08-1.28-1.08-2.48-2.22-2.74-1.28-.3-2.65.32-3.26,1.58-.28.59-.43,1.28-.47,1.93-.27,4.39-.49,8.78-.73,13.16-.48,8.78-.96,17.55-1.46,26.33-.15,2.62-.36,5.23-.56,8-.54-.31-.94-.49-1.29-.75-3.79-2.79-7.63-5.53-11.35-8.42-6.09-4.74-12.09-9.59-18.16-14.36-.69-.54-1.54-.94-2.37-1.22-1.69-.56-3.46.01-4.35,1.27-.91,1.28-.85,2.85.25,4.38.6.84,1.26,1.65,1.99,2.36,4.02,3.91,8.09,7.77,12.1,11.7,4.97,4.86,9.91,9.76,14.84,14.66,1.32,1.31,2.07,2.94,2.16,4.8.23,4.63,2.22,7.79,6.65,9.78,5.01,2.25,10.38,1.76,14.12-2.12,2.77-2.88,4.01-6.39,4.15-10.37.03-.81.37-1.78.9-2.37,3.46-3.83,6.97-7.61,10.54-11.33,6.37-6.64,12.8-13.22,19.21-19.82,1.02-1.04,2.1-2.02,3.15-3.03-4.92,7.71-10.12,15.22-15.1,22.87-5.03,7.74-9.81,15.64-14.72,23.46-4.87,7.76-9.77,15.49-14.75,23.39-.7-.77-1.24-1.31-1.71-1.9-4.13-5.2-8.25-10.4-12.38-15.6-.7-.88-1.36-1.79-2.13-2.6-1.24-1.31-2.17-1.31-3.45-.06-.61.59-1.15,1.26-1.71,1.9-4.77,5.42-9.29,11.09-14.37,16.2-5.7,5.74-12.43,10.28-19.48,14.66-15.89,8.63-32.71,14.41-50.79,16.37.31.22.59.33.88.34,5.59.3,11.19.58,16.78.9.46.03,1.07.2,1.34.52,1.45,1.76,2.74,3.66,4.23,5.39,8.67,10.06,18.7,18.45,30.44,24.73,17.43,9.32,35.99,13.71,55.79,12.73,5.88-.29,11.71-1,17.42-2.37,20.98-5.03,38.93-15.31,53.62-31.16,6.31-6.81,11.8-14.22,16.2-22.41,10.96-20.39,14.09-42.15,11.06-64.9-1.95-14.61-6.96-28.14-15.05-40.49-1.37-2.09-2.88-4.09-4.53-6.41-.97,1.19-1.84,2.08-2.5,3.11-6.14,9.44-12.47,18.76-18.3,28.38-13,21.44-25.21,43.34-37.09,65.42-.33.62-.52,1.32-.87,2.09v.57c.14-.3.19-.42.41-.62M143.45,22.99c-14.02-5.35-28.51-7.67-43.51-6.78-11.88.7-23.31,3.32-34.32,7.8-9.96,4.04-19.25,9.2-27.42,16.26-6.11,5.27-11.34,11.35-16.38,17.62C7.82,75.29,1.15,95.38.09,117.49c-.32,6.69.21,13.35,1.22,19.98,1.95,12.77,6.1,24.77,12.33,36.07.56,1.02,1.19,1.41,2.23,1.11,4.51-1.27,9.02-2.57,13.71-3.92-.3-.64-.5-1.17-.77-1.66-1.83-3.33-3.89-6.56-5.49-10-5.05-10.84-7.99-22.25-8.48-34.23-.37-8.88.67-17.64,2.84-26.25,3.11-12.33,8.81-23.36,16.65-33.33,5.27-6.7,11.05-12.97,18.02-17.85,12.73-8.92,26.82-14.52,42.4-16.16,10.63-1.12,21.13-.59,31.53,1.9,12.57,3.01,23.97,8.46,34.13,16.47.81.64,1.41.63,2.06-.1.36-.4.7-.81,1.07-1.21,1.63-1.78,3.24-3.57,4.89-5.33.61-.65,1.26-1.28,1.94-1.86.92-.78.79-1.52,0-2.25-.89-.82-1.78-1.65-2.74-2.38-7.34-5.64-15.39-10.03-24.18-13.51M33.09,122.64c.2-2.01.11-4.14-1.97-5-2.92-1.2-6.07-1.21-9.11-.3-1.92.58-3.15,2.99-2.8,4.87.36,1.91,1.54,2.84,3.91,2.9,2.28.06,4.57-.03,6.85.01,1.63.03,2.63-.72,3.12-2.48M187.34,125.1c.26-.06.53-.1.79-.17,2.39-.58,3.02-1.26,3.18-3.35.15-1.93-.66-3.38-2.74-3.91-1.92-.5-3.96-.66-5.95-.66-1.14,0-2.4.41-3.41.98-1.53.86-2.22,2.94-1.84,4.58.42,1.81,1.69,2.6,3.43,2.63,2.1.04,4.2-.05,6.53-.1M101.34,44.83c.06.35.12.71.18,1.06.35,1.88,1.66,3.04,3.61,3.18,1.72.12,3.27-.87,3.76-2.63.81-2.91.83-5.85-.15-8.73-.62-1.83-1.9-2.8-3.4-2.76-1.78.05-3.06.94-3.44,2.99-.41,2.18-.4,4.43-.57,6.9M107.49,206.93c2.27-2.61,2.63-9.12.67-11.96-1.14-1.64-3.47-2.06-4.93-.67-.76.73-1.47,1.84-1.58,2.84-.25,2.29-.32,4.65-.09,6.94.31,3.04,3.02,4.33,5.93,2.85M143.48,49.6c-2.18,1.52-2.74,3.96-1.36,5.92,1.32,1.87,3.97,2.26,5.82.85,1.58-1.2,2.03-3.43,1.06-5.18-1.04-1.87-3.02-2.5-5.52-1.59M33.86,163.33c2.04,1.3,4.21,1.09,5.56-.54,1.27-1.53,1.27-3.71-.01-5.18-1.49-1.71-3.99-1.91-5.65-.45-1.86,1.64-1.88,4.01.1,6.16M65.26,49.13c-2.1.04-3.49.93-4.1,2.64-.57,1.58-.1,3.31,1.18,4.39,1.29,1.08,3.09,1.26,4.53.45,1.39-.78,2.24-2.43,2.03-3.96-.25-1.8-1.39-2.96-3.64-3.51M142.26,192.58c1.7,1.45,3.56,1.69,5.16.65,1.42-.92,2.15-2.74,1.7-4.34-.48-1.66-1.55-2.69-3.29-2.96-1.67-.26-3.02.34-3.93,1.74-1.05,1.61-.89,3.22.36,4.91M33.4,79.7c-1.19,1.41-1.45,2.96-.57,4.61.76,1.43,2.04,2.17,3.63,2.12,1.65-.05,2.89-.88,3.57-2.43.73-1.67.22-3.62-1.2-4.72-1.57-1.22-3.5-1.12-5.43.42M63.29,186.33c-1.77,1.33-2.36,2.78-1.86,4.61.41,1.5,1.81,2.68,3.39,2.85,1.67.17,3.25-.67,4-2.14.74-1.44.51-3.3-.56-4.51-1.15-1.3-2.83-1.61-4.97-.81M172.87,163.94c2.02.49,3.7-.13,4.64-1.73.91-1.53.72-3.42-.48-4.72-1.09-1.19-2.78-1.61-4.3-1.07-1.48.52-2.58,1.95-2.61,3.57-.03,1.83.83,3.15,2.74,3.95Z" style="fill:#fff;"/><path d="M1149.9,183.82c-8.43.23-16.85.33-25.27.13-1.54-.04-3.53-.92-4.48-2.09-8.41-10.32-16.62-20.8-24.9-31.22-1.19-1.5-2.41-2.98-4.15-5.12-4.53,4.8-8.86,9.25-12.98,13.89-.69.77-.63,2.35-.64,3.56-.06,6.91-.03,13.83-.03,20.91h-24.61v-3.63c0-40.76,0-81.52,0-122.28,0-4.63.5-5.14,5.06-5.14,6.15,0,12.29.02,18.44.05.21,0,.42.12.97.28v74.02c1.58-.94,2.71-1.34,3.47-2.11,7.98-8.1,16.37-15.87,23.69-24.53,6.82-8.06,14.25-12.69,25.17-10.92,4.66.75,9.54.13,15.25.13-1.94,2.64-3.27,4.98-5.09,6.84-5.89,6.02-12,11.82-17.95,17.78-3.13,3.14-6.08,6.45-9.12,9.67-2.64,2.8-2.9,5.64-.47,8.79,6.19,8.01,12.35,16.05,18.41,24.16,6.33,8.47,12.53,17.03,19,25.64.22.39.22.69.22,1.22Z" style="fill:#2b99bf;"/><path d="M52.29,165.65c6.86-4.29,13.59-8.84,19.29-14.58,5.08-5.11,9.6-10.78,14.37-16.2.56-.64,1.1-1.3,1.71-1.9,1.28-1.25,2.21-1.24,3.45.06.77.81,1.43,1.73,2.13,2.6,4.13,5.2,8.25,10.41,12.38,15.6.47.59,1.01,1.13,1.71,1.9,4.98-7.89,9.87-15.63,14.75-23.39,4.91-7.82,9.7-15.72,14.72-23.46,4.97-7.66,10.18-15.16,15.1-22.87-1.05,1.01-2.13,1.99-3.15,3.03-6.42,6.59-12.84,13.18-19.21,19.82-3.57,3.72-7.08,7.5-10.54,11.33-.53.59-.87,1.56-.9,2.37-.14,3.98-1.38,7.49-4.15,10.37-3.74,3.88-9.11,4.37-14.12,2.12-4.43-1.99-6.42-5.16-6.65-9.78-.09-1.86-.84-3.49-2.16-4.8-4.93-4.9-9.87-9.8-14.84-14.66-4.01-3.92-8.08-7.78-12.1-11.7-.74-.72-1.39-1.53-1.99-2.36-1.1-1.53-1.15-3.1-.25-4.38.89-1.26,2.66-1.83,4.35-1.27.84.28,1.68.68,2.37,1.22,6.07,4.77,12.07,9.62,18.16,14.36,3.72,2.89,7.55,5.62,11.35,8.42.35.26.75.44,1.29.75.2-2.77.41-5.39.56-8,.5-8.78.97-17.55,1.46-26.33.24-4.39.46-8.78.73-13.16.04-.65.19-1.34.47-1.93.61-1.26,1.98-1.88,3.26-1.58,1.14.26,2.15,1.47,2.22,2.74.27,4.48.49,8.96.79,13.43.46,6.85,1.01,13.69,1.42,20.53.18,2.95.04,5.93.21,8.88.09,1.58.53,3.14.89,5.12,25.99-27.08,51.66-53.83,77.6-80.85-5.26-2.4-10.3-4.71-15.34-7.01l.07-.62c15.69-6.46,31.39-12.93,47.28-19.48-2.99,16.49-5.94,32.78-8.97,49.52-1.05-.88-1.96-1.45-2.6-2.23-2.23-2.76-4.34-5.61-6.53-8.39-2.09-2.65-2.35-2.74-4.38-.06-5.28,6.98-10.53,13.98-15.6,21.11-17.47,24.55-33.1,50.26-47.73,76.58-8.34,15-16.17,30.29-24.23,45.44-.21.39-.43.77-.78,1.39-7.55-9.17-15.01-18.21-22.52-27.4.05-.47.16-.8.26-1.12-.14-.09-.29-.19-.43-.28-.79.81-1.73,1.53-2.34,2.45-1.64,2.47-3.89,3.09-6.64,2.52-.18-.04-.35-.07-.53-.1-2.61-.38-5.06-.16-7.23,1.6-1.35,1.1-2.78,2.14-4.27,3.03-2.95,1.76-5.89,3.55-8.98,5.04-2,.97-4.27,1.19-6.6.71.29-.77.55-1.43.78-2.1.23-.67.41-1.36.62-2.04M103.35,116.45c-.34.21-.71.39-1.03.63-1.91,1.47-2.69,4.15-1.82,6.12.93,2.09,3.53,3.57,5.58,3.17,2.92-.56,5.04-3.68,4.32-6.44-.72-2.76-4.19-4.97-7.05-3.49Z" style="fill:url(#d);"/><path d="M52.2,165.7c-.11.64-.3,1.32-.53,1.99-.23.67-.49,1.34-.78,2.1,2.33.48,4.6.26,6.6-.71,3.08-1.49,6.03-3.28,8.98-5.04,1.49-.89,2.92-1.93,4.27-3.03,2.17-1.76,4.62-1.97,7.23-1.6.18.03.35.06.53.1,2.75.57,5-.05,6.64-2.52.62-.93,1.55-1.64,2.34-2.45.14.09.29.19.43.28-.11.33-.21.65-.34,1.07-7.26,6.98-15.3,12.7-24.3,17.07-7.91,3.85-16.19,6.52-24.82,8.17-.13.02-.25.08-.56.18.2.37.35.71.56,1,3.24,4.46,7.55,7.77,11.88,11.05,10.34,7.81,21.76,13.33,34.43,16.19,9.97,2.26,20.02,2.9,30.2,1.82,17.01-1.8,32.34-7.77,45.8-18.38,9.94-7.84,17.7-17.51,23.72-28.6,5.27-9.71,8.77-20.01,10.25-30.97.38-2.84.44-5.72.81-8.74.31-1.88.61-3.59.57-5.3-.04-1.42-.48-2.83-.74-4.24-.67-6.15-1.1-12.36-3.02-18.27-1.65-5.05-3.34-10.13-6.21-14.69-.21-.33-.45-.64-.78-1.1-1.71,2.39-3.37,4.66-4.98,6.97-12.68,18.18-25.34,36.38-38.05,54.54-3.63,5.18-7.44,10.24-11.28,15.36-.12,0-.19-.06-.19-.06.25-.66.44-1.37.77-1.99,11.88-22.08,24.08-43.98,37.09-65.42,5.84-9.62,12.17-18.94,18.3-28.38.67-1.02,1.54-1.92,2.5-3.11,1.65,2.32,3.16,4.32,4.53,6.41,8.09,12.35,13.11,25.88,15.05,40.49,3.03,22.75-.1,44.51-11.06,64.9-4.4,8.19-9.89,15.6-16.2,22.41-14.69,15.85-32.64,26.13-53.62,31.16-5.72,1.37-11.54,2.08-17.42,2.37-19.8.98-38.36-3.41-55.79-12.73-11.74-6.28-21.77-14.67-30.44-24.73-1.49-1.73-2.78-3.63-4.23-5.39-.27-.33-.88-.49-1.34-.52-5.59-.32-11.19-.6-16.78-.9-.29-.02-.57-.12-.88-.34,18.08-1.96,34.89-7.75,50.88-16.42Z" style="fill:url(#e);"/><path d="M143.55,23.02c8.69,3.45,16.74,7.84,24.08,13.48.96.74,1.85,1.57,2.74,2.38.79.73.93,1.47,0,2.25-.68.58-1.33,1.21-1.94,1.86-1.65,1.76-3.26,3.55-4.89,5.33-.36.4-.71.81-1.07,1.21-.65.74-1.25.75-2.06.1-10.16-8.01-21.56-13.46-34.13-16.47-10.4-2.49-20.9-3.02-31.53-1.9-15.57,1.64-29.67,7.24-42.4,16.16-6.97,4.88-12.76,11.16-18.02,17.85-7.84,9.96-13.54,21-16.65,33.33-2.18,8.62-3.21,17.37-2.84,26.25.49,11.98,3.43,23.38,8.48,34.23,1.6,3.44,3.65,6.67,5.49,10,.27.49.48,1.02.77,1.66-4.69,1.34-9.2,2.64-13.71,3.92-1.04.29-1.67-.1-2.23-1.11-6.23-11.3-10.38-23.31-12.33-36.07-1.01-6.62-1.54-13.29-1.22-19.98,1.05-22.11,7.72-42.2,21.72-59.61,5.04-6.27,10.27-12.35,16.38-17.62,8.18-7.05,17.47-12.21,27.42-16.26,11.02-4.47,22.44-7.09,34.32-7.8,15-.89,29.49,1.43,43.61,6.81Z" style="fill:url(#f);"/><path d="M859.14,175.44c-12.27-11.53-8.6-35.84,8.77-42.95,9.16-3.75,18.7-4.59,28.37-4.89,6-.19,12.01-.03,18.04-.03,1.88-9.46-5.13-18.46-15.67-19.29-10.42-.81-20.38.84-29.11,7.27-3.75,2.76-5.1,2.23-6.86-2.18-1.43-3.59-2.76-7.23-4.4-10.72-.91-1.94-.51-3.03,1.1-4.26,6.3-4.81,13.5-7.42,21.16-8.97,11.9-2.4,23.71-2.21,35.41,1.22,14.41,4.23,22.64,14.16,23.89,28.73,1.2,14,.77,28.14.97,42.22.1,7.37.02,14.74.02,22.27h-23.3v-8.08c-19.63,14.33-38.98,15.41-58.41-.35M910.22,143.04c-8.44.28-16.98-1.04-25.19,2.46-3.96,1.69-6.95,3.5-7.36,8.26-.44,5.2.81,9.48,5.45,12.3,13.77,8.37,32.42-1.54,33.02-17.52.18-4.92-.35-5.48-5.92-5.5Z" style="fill:#2b99bf;"/><path d="M770.56,80.16h-22.35v-21.87h3.14c32.46,0,64.92.03,97.38-.06,2.68,0,4.02.62,4.07,3.46.07,4.88.38,9.75.4,14.63.01,2.64-1.14,3.97-4.22,3.92-11.61-.19-23.22-.08-35.22-.08v103.67h-26.03v-103.67h-17.18Z" style="fill:#2b99bf;"/><path d="M985.18,123.33c7.32,1.63,14.42,3.09,21.49,4.67,5.09,1.14,10.3,2.01,15.19,3.74,13.42,4.74,17.17,12.9,16.2,26.16-1.08,14.79-10.45,22.84-23.85,26.36-19.82,5.21-38.76,2.3-56.58-7.82-.88-.5-1.66-1.15-2.72-1.89,2.51-5.91,4.99-11.74,7.64-17.96,3.08,1.49,6.02,2.84,8.9,4.32,10.41,5.35,21.4,6.65,32.82,4.64,2.09-.37,4.19-1.12,6.1-2.06,2.59-1.28,4.33-3.38,4.17-6.49-.17-3.3-1.39-6.22-4.8-7.12-5.91-1.57-11.93-2.74-17.9-4.12-5.75-1.33-11.58-2.41-17.21-4.14-9.8-3.01-16.99-8.61-17.94-19.82-.92-10.93,2.87-19.63,12.02-25.79,8.18-5.51,17.51-7.5,27.13-8.1,11.61-.73,22.92.89,33.63,5.69,1.73.77,3.33,1.82,5.37,2.95-2.24,5.26-4.36,10.26-6.5,15.25-.92,2.15-2.11,2.7-4.49,1.52-9.67-4.81-19.96-7.11-30.74-5.71-3.07.4-6.37,1.9-8.79,3.85-4.33,3.48-3.81,8.28.86,11.87Z" style="fill:#2b99bf;"/><path d="M694.32,187.46c-2.46-.43-4.6-.95-6.77-1.29-40.54-6.32-52.9-51.5-33.42-78.77,8.24-11.54,19.92-17.37,33.77-18.96,11.03-1.26,21.88-.46,31.85,4.97,13.72,7.47,20.79,19.65,23.38,34.63.9,5.22.91,10.59,1.36,16.29h-74.1c.4,1.58.59,2.74.98,3.82,4.09,11.29,16.09,18.54,28.67,17.92,7.82-.39,14.63-3.1,20.85-7.51,3.11-2.21,5.6-1.93,7.95.93,2.09,2.54,4.36,4.97,6.21,7.68,2.45,3.59,2.37,5.18-1.09,7.83-3.21,2.46-6.73,4.92-10.52,6.13-7.54,2.4-15.35,3.94-23.16,6.09-1.96.26-3.81.26-5.96.26M708.14,110.68c-16.85-8.51-36.37.33-37.67,17.1h48.57c-1.05-7.81-3.99-12.5-10.9-17.1Z" style="fill:#2a7a96;"/><path d="M307.84,58.61c34.95-.32,69.9-.32,105.06-.32v21.84h-39.34v103.67h-25.94v-103.64c-13.26,0-26.2,0-39.46,0-.32-7.08-.32-14.15-.32-21.55Z" style="fill:#2a7a96;"/><path d="M563.47,143.72v40.12h-24.61v-3.67c0-14.92.18-29.84-.1-44.75-.09-4.94-.91-9.99-2.24-14.76-2.51-8.98-12.78-13.71-22.77-10.84-7.69,2.21-12.74,7.1-14.83,14.98-1.61,6.06-2.64,12.1-2.51,18.45.27,13.43.08,26.86.08,40.54h-23.01v-93.86h21.69c.66,2.74,1.36,5.65,2.09,8.65,20.21-16.9,46.82-12.66,60.03,4.24.57-.5,1.13-.99,1.68-1.49,13.84-12.55,29.68-16.78,47.64-10.96,9.16,2.97,15.35,9.4,19.08,18.29,2.4,5.73,3.6,11.52,3.51,17.84-.28,19.01-.1,38.02-.1,57.29h-24.61v-3.48c0-17.42-.76-34.89.24-52.25.8-13.77-15.47-23.7-27.7-16.99-8.54,4.69-14.3,11.15-13.59,21.72.24,3.51.04,7.06.04,10.93Z" style="fill:#2a7a96;"/><path d="M450.01,164.23c0,6.49-.01,12.63-.03,18.78,0,.21-.1.42-.2.84h-24.18v-93.91h24.41v74.29Z" style="fill:#2a7a96;"/><path d="M452.74,63.5c-1.83,8.35-7.36,13.18-14.83,13.22-6.92.04-13.04-4.76-14.62-11.49-1.44-6.13.37-11.28,5.15-15.21,4.71-3.87,10.11-4.5,15.65-1.99,5.55,2.52,8.42,7.04,8.74,13.13.04.68-.04,1.36-.08,2.34Z" style="fill:#2a7a96;"/><path d="M33.07,122.75c-.46,1.66-1.45,2.4-3.09,2.37-2.28-.04-4.57.05-6.85-.01-2.37-.06-3.55-.99-3.91-2.9-.35-1.89.88-4.3,2.8-4.87,3.03-.91,6.19-.91,9.11.3,2.08.86,2.17,2.99,1.94,5.11Z" style="fill:#2377a5;"/><path d="M187.22,125.1c-2.22.04-4.32.13-6.42.09-1.74-.03-3.01-.82-3.43-2.63-.38-1.65.31-3.73,1.84-4.58,1.01-.57,2.27-.98,3.41-.98,1.99,0,4.03.17,5.95.66,2.08.54,2.89,1.99,2.74,3.91-.16,2.09-.8,2.76-3.18,3.35-.26.06-.52.11-.9.18Z" style="fill:#2f91cd;"/><path d="M101.33,44.71c.17-2.34.17-4.6.57-6.78.38-2.05,1.66-2.94,3.44-2.99,1.5-.04,2.78.93,3.4,2.76.97,2.88.95,5.82.15,8.73-.49,1.76-2.04,2.76-3.76,2.63-1.95-.14-3.26-1.3-3.61-3.18-.07-.35-.12-.71-.19-1.18Z" style="fill:#339bc9;"/><path d="M107.41,206.99c-2.82,1.42-5.53.13-5.84-2.91-.23-2.29-.16-4.64.09-6.94.11-1.01.82-2.12,1.58-2.84,1.46-1.39,3.79-.97,4.93.67,1.97,2.84,1.6,9.35-.75,12.02Z" style="fill:#1b64a0;"/><path d="M143.57,49.55c2.41-.86,4.39-.23,5.43,1.64.98,1.76.52,3.99-1.06,5.18-1.86,1.41-4.51,1.02-5.82-.85-1.38-1.96-.82-4.39,1.45-5.97Z" style="fill:#3695c5;"/><path d="M33.78,163.27c-1.9-2.09-1.88-4.45-.02-6.1,1.65-1.46,4.16-1.26,5.65.45,1.28,1.47,1.29,3.64.01,5.18-1.35,1.63-3.52,1.84-5.64.47Z" style="fill:#1d6498;"/><path d="M65.37,49.14c2.14.54,3.29,1.7,3.53,3.5.21,1.52-.64,3.17-2.03,3.96-1.44.81-3.24.63-4.53-.45-1.28-1.07-1.75-2.8-1.18-4.39.61-1.7,2-2.6,4.21-2.63Z" style="fill:#318fbe;"/><path d="M142.2,192.5c-1.19-1.61-1.35-3.22-.3-4.83.91-1.4,2.26-1.99,3.93-1.74,1.73.27,2.81,1.3,3.29,2.96.46,1.6-.27,3.42-1.7,4.34-1.6,1.04-3.46.8-5.23-.73Z" style="fill:#2471a7;"/><path d="M33.46,79.63c1.86-1.47,3.79-1.57,5.36-.35,1.42,1.1,1.93,3.05,1.2,4.72-.68,1.55-1.92,2.38-3.57,2.43-1.59.05-2.87-.69-3.63-2.12-.87-1.65-.62-3.2.64-4.68Z" style="fill:#3090af;"/><path d="M63.38,186.29c2.05-.76,3.73-.44,4.88.85,1.07,1.21,1.3,3.07.56,4.51-.75,1.47-2.33,2.31-4,2.14-1.57-.16-2.98-1.34-3.39-2.85-.5-1.83.09-3.29,1.95-4.66Z" style="fill:#1f6499;"/><path d="M172.77,163.92c-1.81-.76-2.67-2.08-2.64-3.92.03-1.62,1.13-3.05,2.61-3.57,1.52-.54,3.21-.12,4.3,1.07,1.2,1.3,1.39,3.19.48,4.72-.94,1.59-2.62,2.22-4.75,1.7Z" style="fill:#297eae;"/><path d="M195.32,115.26c.28,1.29.73,2.7.77,4.12.05,1.71-.26,3.42-.5,5.22-.16-3.01-.22-6.11-.27-9.33Z" style="fill:#2d91d8;"/><path d="M130.95,157.99c-.02.15-.07.26-.21.57,0-.32,0-.45.05-.62.05-.05.12.02.16.05Z" style="fill:#51a3c7;"/></g></svg>